<svg width="47" height="47" viewBox="0 0 47 47" fill="none" xmlns="http://www.w3.org/2000/svg">
<path d="M23.5 0.166656C36.387 0.166656 46.8333 10.613 46.8333 23.5C46.8333 36.387 36.387 46.8333 23.5 46.8333C10.613 46.8333 0.166664 36.387 0.166664 23.5C0.166664 10.613 10.613 0.166656 23.5 0.166656ZM23.5 3.66666C18.2399 3.66666 13.1952 5.75623 9.47571 9.47571C5.75624 13.1952 3.66666 18.2399 3.66666 23.5C3.66666 28.7601 5.75624 33.8048 9.47571 37.5243C13.1952 41.2437 18.2399 43.3333 23.5 43.3333C28.7601 43.3333 33.8048 41.2437 37.5243 37.5243C41.2438 33.8048 43.3333 28.7601 43.3333 23.5C43.3333 18.2399 41.2438 13.1952 37.5243 9.47571C33.8048 5.75623 28.7601 3.66666 23.5 3.66666ZM23.5 11.8333C23.9641 11.8333 24.4092 12.0177 24.7374 12.3459C25.0656 12.6741 25.25 13.1192 25.25 13.5833V21.75H33.4167C33.8808 21.75 34.3259 21.9344 34.6541 22.2626C34.9823 22.5907 35.1667 23.0359 35.1667 23.5C35.1667 23.9641 34.9823 24.4092 34.6541 24.7374C34.3259 25.0656 33.8808 25.25 33.4167 25.25H25.25V33.4167C25.25 33.8808 25.0656 34.3259 24.7374 34.6541C24.4092 34.9823 23.9641 35.1667 23.5 35.1667C23.0359 35.1667 22.5907 34.9823 22.2626 34.6541C21.9344 34.3259 21.75 33.8808 21.75 33.4167V25.25H13.5833C13.1192 25.25 12.6741 25.0656 12.3459 24.7374C12.0177 24.4092 11.8333 23.9641 11.8333 23.5C11.8333 23.0359 12.0177 22.5907 12.3459 22.2626C12.6741 21.9344 13.1192 21.75 13.5833 21.75H21.75V13.5833C21.75 13.1192 21.9344 12.6741 22.2626 12.3459C22.5907 12.0177 23.0359 11.8333 23.5 11.8333Z" fill="#D1D5DB"/>
</svg>
