<svg width="18" height="19" viewBox="0 0 18 19" fill="none" xmlns="http://www.w3.org/2000/svg">
<path d="M7.78875 16.841C7.87842 16.9112 7.98294 16.96 8.09433 16.9836C8.20572 17.0073 8.32104 17.0052 8.4315 16.9775L14.4315 15.4775C14.5939 15.4371 14.7381 15.3436 14.8411 15.2117C14.9442 15.0799 15.0001 14.9173 15 14.75V4.25C15 4.08271 14.944 3.92023 14.841 3.7884C14.738 3.65658 14.5938 3.56299 14.4315 3.5225L8.4315 2.0225C8.321 1.99539 8.20578 1.9937 8.09453 2.01755C7.98328 2.0414 7.87889 2.09018 7.78922 2.16022C7.69955 2.23025 7.62693 2.31972 7.57683 2.42187C7.52674 2.52403 7.50047 2.63622 7.5 2.75V3.5H4.5C4.30109 3.5 4.11032 3.57902 3.96967 3.71967C3.82902 3.86032 3.75 4.05109 3.75 4.25V14.75C3.75 14.9489 3.82902 15.1397 3.96967 15.2803C4.11032 15.421 4.30109 15.5 4.5 15.5H7.5V16.25C7.5 16.481 7.6065 16.6993 7.78875 16.841ZM9 3.71075L13.5 4.83575V14.1643L9 15.2893V3.71075ZM5.25 14V5H7.5V14H5.25Z" fill="#FF8142"/>
<path d="M10.6815 10.3692C11.016 10.2852 11.25 9.98525 11.25 9.641V9.35825C11.2499 9.15934 11.1708 8.96861 11.0301 8.82803C10.8893 8.68745 10.6985 8.60852 10.4996 8.60862C10.3007 8.60872 10.11 8.68784 9.9694 8.82856C9.82882 8.96928 9.7499 9.16009 9.75 9.359V9.64175C9.75003 9.75567 9.77602 9.86809 9.82598 9.97047C9.87594 10.0729 9.94857 10.1625 10.0384 10.2326C10.1281 10.3028 10.2327 10.3515 10.3442 10.3752C10.4556 10.3988 10.571 10.3968 10.6815 10.3692Z" fill="#FF8142"/>
</svg>
