<svg width="16" height="18" viewBox="0 0 16 18" fill="none" xmlns="http://www.w3.org/2000/svg">
<path d="M12.7142 12.8808L9.17833 16.4167C8.86582 16.7289 8.44215 16.9042 8.00041 16.9042C7.55868 16.9042 7.13501 16.7289 6.8225 16.4167L3.28583 12.8808C2.35352 11.9485 1.71861 10.7606 1.4614 9.46739C1.2042 8.17419 1.33624 6.83376 1.84083 5.61561C2.34543 4.39745 3.19991 3.35628 4.29623 2.62376C5.39255 1.89123 6.68147 1.50024 8 1.50024C9.31853 1.50024 10.6074 1.89123 11.7038 2.62376C12.8001 3.35628 13.6546 4.39745 14.1592 5.61561C14.6638 6.83376 14.7958 8.17419 14.5386 9.46739C14.2814 10.7606 13.6465 11.9485 12.7142 12.8808Z" fill="#D1D5DB" stroke="#D1D5DB" stroke-width="1.5" stroke-linecap="round" stroke-linejoin="round"/>
<path d="M8 10.9167C9.51878 10.9167 10.75 9.68544 10.75 8.16666C10.75 6.64787 9.51878 5.41666 8 5.41666C6.48122 5.41666 5.25 6.64787 5.25 8.16666C5.25 9.68544 6.48122 10.9167 8 10.9167Z" fill="#F3F4F6" stroke="#F3F4F6" stroke-width="0.5" stroke-linecap="round" stroke-linejoin="round"/>
</svg>
