<svg width="18" height="16" viewBox="0 0 18 16" fill="none" xmlns="http://www.w3.org/2000/svg">
<path d="M0.666626 3.83333C0.666626 1.99238 2.15901 0.5 3.99996 0.5H14C15.8409 0.5 17.3333 1.99238 17.3333 3.83333V12.1667C17.3333 14.0076 15.8409 15.5 14 15.5H3.99996C2.15901 15.5 0.666626 14.0076 0.666626 12.1667V3.83333Z" fill="#D1D5DB"/>
<path fill-rule="evenodd" clip-rule="evenodd" d="M3.48003 4.32004C3.67151 4.03283 4.05955 3.95522 4.34675 4.14669L7.49775 6.24736C8.40748 6.85384 9.59265 6.85384 10.5024 6.24736L13.6534 4.14669C13.9406 3.95522 14.3286 4.03283 14.5201 4.32004C14.7116 4.60724 14.634 4.99528 14.3468 5.18675L11.1958 7.28742C9.86615 8.17382 8.13398 8.17382 6.80438 7.28742L3.65338 5.18675C3.36617 4.99528 3.28856 4.60724 3.48003 4.32004Z" fill="#F3F4F6"/>
</svg>
