<svg width="25" height="25" viewBox="0 0 25 25" fill="none" xmlns="http://www.w3.org/2000/svg">
<path d="M12.5 12.5C14.0913 12.5 15.6174 11.8679 16.7426 10.7426C17.8679 9.61742 18.5 8.0913 18.5 6.5C18.5 4.9087 17.8679 3.38258 16.7426 2.25736C15.6174 1.13214 14.0913 0.5 12.5 0.5C10.9087 0.5 9.38258 1.13214 8.25736 2.25736C7.13214 3.38258 6.5 4.9087 6.5 6.5C6.5 8.0913 7.13214 9.61742 8.25736 10.7426C9.38258 11.8679 10.9087 12.5 12.5 12.5ZM16.5 6.5C16.5 7.56087 16.0786 8.57828 15.3284 9.32843C14.5783 10.0786 13.5609 10.5 12.5 10.5C11.4391 10.5 10.4217 10.0786 9.67157 9.32843C8.92143 8.57828 8.5 7.56087 8.5 6.5C8.5 5.43913 8.92143 4.42172 9.67157 3.67157C10.4217 2.92143 11.4391 2.5 12.5 2.5C13.5609 2.5 14.5783 2.92143 15.3284 3.67157C16.0786 4.42172 16.5 5.43913 16.5 6.5ZM24.5 22.5C24.5 24.5 22.5 24.5 22.5 24.5H2.5C2.5 24.5 0.5 24.5 0.5 22.5C0.5 20.5 2.5 14.5 12.5 14.5C22.5 14.5 24.5 20.5 24.5 22.5ZM22.5 22.492C22.498 22 22.192 20.52 20.836 19.164C19.532 17.86 17.078 16.5 12.5 16.5C7.92 16.5 5.468 17.86 4.164 19.164C2.808 20.52 2.504 22 2.5 22.492H22.5Z" fill="#FF8142"/>
</svg>
