<svg width="32" height="33" viewBox="0 0 32 33" fill="none" xmlns="http://www.w3.org/2000/svg">
<g clip-path="url(#clip0_8_1042)">
<path d="M4 2.5C2.93913 2.5 1.92172 2.92143 1.17157 3.67157C0.421427 4.42172 0 5.43913 0 6.5L0 24.5C0 25.5609 0.421427 26.5783 1.17157 27.3284C1.92172 28.0786 2.93913 28.5 4 28.5H28C29.0609 28.5 30.0783 28.0786 30.8284 27.3284C31.5786 26.5783 32 25.5609 32 24.5V6.5C32 5.43913 31.5786 4.42172 30.8284 3.67157C30.0783 2.92143 29.0609 2.5 28 2.5H4ZM2 6.5C2 5.96957 2.21071 5.46086 2.58579 5.08579C2.96086 4.71071 3.46957 4.5 4 4.5H8V8.5H2V6.5ZM10 26.5V4.5H28C28.5304 4.5 29.0391 4.71071 29.4142 5.08579C29.7893 5.46086 30 5.96957 30 6.5V24.5C30 25.07 29.76 25.586 29.38 25.95C29.4142 26.5 24.644 26.5 19 26.5C12.926 26.5 12 26.5 10.404 26.5H10ZM2 22.5H8V26.5H4C3.46957 26.5 2.96086 26.2893 2.58579 25.9142C2.21071 25.5391 2 25.0304 2 24.5V22.5ZM8 20.5H2V16.5H8V20.5ZM8 14.5H2V10.5H8V14.5Z" fill="#FF8142"/>
<path d="M20 19.15C21.2333 19.15 22.416 18.6601 23.288 17.788C24.1601 16.916 24.65 15.7333 24.65 14.5C24.65 13.2667 24.1601 12.084 23.288 11.212C22.416 10.3399 21.2333 9.85 20 9.85C18.7667 9.85 17.584 10.3399 16.712 11.212C15.8399 12.084 15.35 13.2667 15.35 14.5C15.35 15.7333 15.8399 16.916 16.712 17.788C17.584 18.6601 18.7667 19.15 20 19.15ZM22.85 14.5C22.85 15.2559 22.5497 15.9808 22.0153 16.5153C21.4808 17.0497 20.7559 17.35 20 17.35C19.2441 17.35 18.5192 17.0497 17.9847 16.5153C17.4503 15.9808 17.15 15.2559 17.15 14.5C17.15 13.7441 17.4503 13.0192 17.9847 12.4847C18.5192 11.9503 19.2441 11.65 20 11.65C20.7559 11.65 21.4808 11.9503 22.0153 12.4847C22.5497 13.0192 22.85 13.7441 22.85 14.5ZM12.5 28V28.15H27.5V28C27.5 28.15 27.5001 28.15 27.5002 28.15H27.5004L27.5009 28.15L27.5023 28.15L27.5067 28.1499L27.5218 28.1496C27.5346 28.1491 27.5526 28.1483 27.5751 28.1467C27.6201 28.1435 27.6835 28.1371 27.759 28.1245C27.9095 28.0994 28.1124 28.049 28.3171 27.9467C28.5224 27.844 28.7322 27.6877 28.8904 27.4504C29.0493 27.2122 29.15 26.9012 29.15 26.5C29.15 25.7115 28.7601 24.1729 27.4186 22.8314C26.0727 21.4855 23.7816 20.35 20 20.35C16.2184 20.35 13.9273 21.4855 12.5814 22.8314C11.2399 24.1729 10.85 25.7115 10.85 26.5C10.85 26.9012 10.9507 27.2122 11.1096 27.4504C11.2678 27.6877 11.4776 27.844 11.6829 27.9467C11.8876 28.049 12.0905 28.0994 12.241 28.1245C12.3165 28.1371 12.3799 28.1435 12.4249 28.1467C12.4474 28.1483 12.4654 28.1491 12.4782 28.1496L12.4933 28.1499L12.4977 28.15L12.4991 28.15L12.4996 28.15H12.4998C12.4999 28.15 12.5 28.15 12.5 28ZM26.1459 24.1041C27.0148 24.973 27.2856 25.9065 27.3392 26.344H12.6612C12.7156 25.9058 12.9856 24.9725 13.8541 24.1041C14.7987 23.1594 16.5967 22.15 20 22.15C23.4018 22.15 25.2013 23.1594 26.1459 24.1041Z" fill="#FF8142" stroke="#FF8142" stroke-width="0.3"/>
</g>
<defs>
<clipPath id="clip0_8_1042">
<rect width="32" height="32" fill="white" transform="translate(0 0.5)"/>
</clipPath>
</defs>
</svg>
