<svg width="66" height="81" viewBox="0 0 66 81" fill="none" xmlns="http://www.w3.org/2000/svg">
<path d="M28.6687 42.7388L22.9969 37.0673C22.1719 36.2571 21.1929 35.852 20.0599 35.852C18.9241 35.852 17.9437 36.2571 17.1187 37.0673C16.2937 37.8775 15.8647 38.839 15.8317 39.9517C15.796 41.0671 16.1906 42.0299 17.0156 42.8401L25.7812 51.4487C26.6063 52.2589 27.5687 52.664 28.6687 52.664C29.7687 52.664 30.7312 52.2589 31.5562 51.4487L49.0875 34.2316C49.9125 33.4214 50.325 32.4586 50.325 31.3432C50.325 30.2305 49.9125 29.269 49.0875 28.4588C48.2625 27.6486 47.2835 27.2435 46.1505 27.2435C45.0147 27.2435 44.0344 27.6486 43.2094 28.4588L28.6687 42.7388ZM33 80.11H31.9688C31.625 80.11 31.3156 80.0425 31.0406 79.9074C22.0344 77.1392 14.6094 71.6527 8.76562 63.4479C2.92188 55.2459 0 46.1823 0 36.2571V17.1158C0 15.4278 0.499125 13.9087 1.49737 12.5583C2.49287 11.208 3.78125 10.229 5.3625 9.6213L30.1125 0.506384C31.075 0.168795 32.0375 0 33 0C33.9625 0 34.925 0.168795 35.8875 0.506384L60.6375 9.6213C62.2188 10.229 63.5085 11.208 64.5068 12.5583C65.5023 13.9087 66 15.4278 66 17.1158V36.2571C66 46.1823 63.0781 55.2459 57.2344 63.4479C51.3906 71.6527 43.9656 77.1392 34.9594 79.9074C34.6156 80.0425 33.9625 80.11 33 80.11Z" fill="#16A34A"/>
</svg>
